<?xml version="1.0" encoding="UTF-8" standalone="no"?>
<svg
   clip-rule="evenodd"
   fill-rule="evenodd"
   height="24"
   stroke-linejoin="round"
   stroke-miterlimit="2"
   viewBox="0 0 1.125 1.125"
   width="24"
   version="1.1"
   id="svg3"
   sodipodi:docname="free-icon-printer-6547498.svg"
   xmlns:inkscape="http://www.inkscape.org/namespaces/inkscape"
   xmlns:sodipodi="http://sodipodi.sourceforge.net/DTD/sodipodi-0.dtd"
   xmlns="http://www.w3.org/2000/svg"
   xmlns:svg="http://www.w3.org/2000/svg">
  <defs
     id="defs3" />
  <sodipodi:namedview
     id="namedview3"
     pagecolor="#ffffff"
     bordercolor="#000000"
     borderopacity="0.25"
     inkscape:showpageshadow="2"
     inkscape:pageopacity="0.0"
     inkscape:pagecheckerboard="true"
     inkscape:deskcolor="#d1d1d1" />
  <g
     id="Icon"
     transform="matrix(0.04573171,0,0,0.04361277,0.01371951,0.03914681)">
    <path
       d="M 4.25,18.739 V 15 c 0,-0.966 0.784,-1.75 1.75,-1.75 h 12 c 0.966,0 1.75,0.784 1.75,1.75 v 3.739 c 0.638,-0.059 1.238,-0.338 1.695,-0.794 0.515,-0.516 0.805,-1.216 0.805,-1.945 0,-1.986 0,-5.014 0,-7 0,-0.729 -0.29,-1.429 -0.805,-1.945 C 20.929,6.54 20.229,6.25 19.5,6.25 H 4.5 C 3.771,6.25 3.071,6.54 2.555,7.055 2.04,7.571 1.75,8.271 1.75,9 v 7 c 0,0.729 0.29,1.429 0.805,1.945 0.457,0.456 1.057,0.735 1.695,0.794 z M 18.5,9.25 h -2 c -0.414,0 -0.75,0.336 -0.75,0.75 0,0.414 0.336,0.75 0.75,0.75 h 2 c 0.414,0 0.75,-0.336 0.75,-0.75 0,-0.414 -0.336,-0.75 -0.75,-0.75 z"
       id="path1" />
    <path
       d="m 5.25,5.25 h 13.5 V 3.002 C 18.75,2.538 18.566,2.093 18.237,1.765 17.909,1.436 17.464,1.252 17,1.252 c -2.26,0 -7.74,0 -10,0 -0.464,0 -0.909,0.184 -1.237,0.513 C 5.434,2.093 5.25,2.538 5.25,3.002 Z"
       id="path2" />
    <path
       d="M 18.75,20.998 V 15 c 0,-0.414 -0.336,-0.75 -0.75,-0.75 H 6 c -0.414,0 -0.75,0.336 -0.75,0.75 v 5.998 c 0,0.966 0.784,1.75 1.75,1.75 h 10 c 0.966,0 1.75,-0.784 1.75,-1.75 z"
       id="path3" />
  </g>
</svg>
