<svg xmlns="http://www.w3.org/2000/svg" version="1.1" viewBox="0 0 24 24" width="24" height="24">
	<path d="M19.88 8.06c-.44 0-.79.35-.79.79v10.25c0 .87-.71 1.58-1.58 1.58H6.48c-.87 0-1.58-.71-1.58-1.58v-10.25c0-.44-.35-.79-.79-.79-.44 0-.79.35-.79.79v10.25c0 1.74 1.41 3.15 3.15 3.15h11.04c1.74 0 3.15-1.41 3.15-3.15v-10.25c0-.44-.35-.79-.79-.79zM8.85 17.52V8.85c0-.44-.35-.79-.79-.79-.44 0-.79.35-.79.79v8.67c0 .44.35.79.79.79.44 0 .79-.35.79-.79zm12.62-12.61H15.15V2.54c0-.44-.35-.79-.79-.79H9.63c-.44 0-.79.35-.79.79V4.9H2.54c-.44 0-.79.35-.79.79 0 .44.35.79.79.79h18.92c.44 0 .79-.35.79-.79 0-.44-.35-.79-.79-.79zm-7.88 0H10.42V3.33h3.15zm3.15 12.61V8.85c0-.44-.35-.79-.79-.79-.44 0-.79.35-.79.79v8.67c0 .44.35.79.79.79.44 0 .79-.35.79-.79zm-3.94 0v-8.67c0-.44-.35-.79-.79-.79-.44 0-.79.35-.79.79v8.67c0 .44.35.79.79.79.44 0 .79-.35.79-.79z"/>
</svg>