<?xml version="1.0" encoding="utf-8"?>
<!-- Svg Vector Icons : http://www.onlinewebfonts.com/icon -->
<!DOCTYPE svg PUBLIC "-//W3C//DTD SVG 1.1//EN" "http://www.w3.org/Graphics/SVG/1.1/DTD/svg11.dtd">
<svg version="1.1" xmlns="http://www.w3.org/2000/svg" xmlns:xlink="http://www.w3.org/1999/xlink" x="0px" y="0px" viewBox="0 0 1000 1000" enable-background="new 0 0 1000 1000" xml:space="preserve">
<metadata> Svg Vector Icons : http://www.onlinewebfonts.com/icon </metadata>
<g><path d="M876.9,311.5c-20.8,0-37.7,16.9-37.7,37.7v490c0,41.6-33.8,75.4-75.4,75.4H236.2c-41.6,0-75.4-33.8-75.4-75.4v-490c0-20.8-16.9-37.7-37.7-37.7c-20.8,0-37.7,16.9-37.7,37.7v490c0,83.3,67.5,150.8,150.8,150.8h527.7c83.3,0,150.8-67.5,150.8-150.8v-490C914.6,328.4,897.8,311.5,876.9,311.5z M349.2,763.8V349.2c0-20.8-16.9-37.7-37.7-37.7c-20.8,0-37.7,16.9-37.7,37.7v414.6c0,20.8,16.9,37.7,37.7,37.7C332.3,801.5,349.2,784.7,349.2,763.8z M952.3,160.8H650.8V47.7c0-20.8-16.8-37.7-37.7-37.7H386.9c-20.8,0-37.7,16.9-37.7,37.7v113.1H47.7c-20.8,0-37.7,16.9-37.7,37.7c0,20.8,16.9,37.7,37.7,37.7h904.6c20.8,0,37.7-16.8,37.7-37.7C990,177.7,973.2,160.8,952.3,160.8z M575.4,160.8H424.6V85.4h150.8V160.8z M726.2,763.8V349.2c0-20.8-16.8-37.7-37.7-37.7c-20.8,0-37.7,16.9-37.7,37.7v414.6c0,20.8,16.8,37.7,37.7,37.7C709.3,801.5,726.2,784.7,726.2,763.8z M537.7,763.8V349.2c0-20.8-16.8-37.7-37.7-37.7c-20.8,0-37.7,16.9-37.7,37.7v414.6c0,20.8,16.9,37.7,37.7,37.7C520.8,801.5,537.7,784.7,537.7,763.8z"/></g>
</svg>