<svg xmlns="http://www.w3.org/2000/svg" version="1.1" viewBox="0 0 24 24">
	<path d="M3 9.5a.5.5 0 0 0 0 1 .5.5 0 0 0 0-1zm18 1a.5.5 0 0 0 0-1 .5.5 0 0 0 0 1zm0 3a.5.5 0 0 0 0 1 .5.5 0 0 0 0-1zm-18 0a.5.5 0 0 0 0 1 .5.5 0 0 0 0-1zm7 7a.5.5 0 0 0 0 1 .5.5 0 0 0 0-1zm0-17a.5.5 0 0 0 0-1 .5.5 0 0 0 0 1zm4 0a.5.5 0 0 0 0-1 .5.5 0 0 0 0 1zm0 17a.5.5 0 0 0 0 1 .5.5 0 0 0 0-1zM6 5a1 1 0 0 0 0 2 1 1 0 0 0 0-2zm0 4a1 1 0 0 0 0 2 1 1 0 0 0 0-2zm0 4a1 1 0 0 0 0 2 1 1 0 0 0 0-2zm0 4a1 1 0 0 0 0 2 1 1 0 0 0 0-2zm4 0a1 1 0 0 0 0 2 1 1 0 0 0 0-2zm4 0a1 1 0 0 0 0 2 1 1 0 0 0 0-2zm4 0a1 1 0 0 0 0 2 1 1 0 0 0 0-2zm0-4a1 1 0 0 0 0 2 1 1 0 0 0 0-2zm0-4a1 1 0 0 0 0 2 1 1 0 0 0 0-2zm0-4a1 1 0 0 0 0 2 1 1 0 0 0 0-2zm-4 0a1 1 0 0 0 0 2 1 1 0 0 0 0-2zm-4 0a1 1 0 0 0 0 2 1 1 0 0 0 0-2zM10 8.5a1 1 0 0 0 0 3 1 1 0 0 0 0-3zm4 0a1 1 0 0 0 0 3 1 1 0 0 0 0-3zm0 4a1 1 0 0 0 0 3 1 1 0 0 0 0-3zm-4 0a1 1 0 0 0 0 3 1 1 0 0 0 0-3z"/>
</svg>
