<?xml version="1.0" encoding="UTF-8" standalone="no"?>
<svg
   fill="none"
   height="25"
   viewBox="0 0 1.171875 1.171875"
   width="25"
   version="1.1"
   id="svg2"
   xmlns="http://www.w3.org/2000/svg"
   xmlns:svg="http://www.w3.org/2000/svg">
  <defs
     id="defs2" />
  <g
     fill="#000000"
     id="g2"
     transform="matrix(0.06738281,0,0,0.05390625,-0.22265624,-0.0609375)">
    <path
       d="m 8.26702,14.6802 c -0.184,0 -0.308,0.018 -0.372,0.036 v 1.178 c 0.076,0.018 0.171,0.023 0.302,0.023 0.479,0 0.774,-0.242 0.774,-0.651 0,-0.366 -0.254,-0.586 -0.704,-0.586 z m 3.48698,0.012 c -0.2,0 -0.33,0.018 -0.407,0.036 v 2.61 c 0.077,0.018 0.201,0.018 0.313,0.018 0.817,0.006 1.349,-0.444 1.349,-1.396 0.006,-0.83 -0.479,-1.268 -1.255,-1.268 z"
       id="path1" />
    <path
       d="M 14,2 H 6 C 5.46957,2 4.96086,2.21071 4.58579,2.58579 4.21071,2.96086 4,3.46957 4,4 v 16 c 0,0.5304 0.21071,1.0391 0.58579,1.4142 C 4.96086,21.7893 5.46957,22 6,22 h 12 c 0.5304,0 1.0391,-0.2107 1.4142,-0.5858 C 19.7893,21.0391 20,20.5304 20,20 V 8 Z M 9.498,16.19 C 9.189,16.48 8.733,16.61 8.202,16.61 8.09904,16.6111 7.99613,16.6051 7.894,16.592 v 1.426 H 7 V 14.082 C 7.40345,14.0218 7.81112,13.9944 8.219,14 c 0.557,0 0.953,0.106 1.22,0.319 0.254,0.202 0.426,0.533 0.426,0.923 -10e-4,0.392 -0.131,0.723 -0.367,0.948 z m 3.807,1.355 c -0.42,0.349 -1.059,0.515 -1.84,0.515 -0.468,0 -0.799,-0.03 -1.024,-0.06 v -3.917 c 0.4036,-0.0589 0.8111,-0.0867 1.219,-0.083 0.757,0 1.249,0.136 1.633,0.426 0.415,0.308 0.675,0.799 0.675,1.504 0,0.763 -0.279,1.29 -0.663,1.615 z M 17,14.77 h -1.532 v 0.911 H 16.9 v 0.734 h -1.432 v 1.604 H 14.562 V 14.03 H 17 Z M 14,9 H 13 V 4 l 5,5 z"
       id="path2" />
  </g>
</svg>
