<svg class="icon" width="1em" height="1em" vertical-align="middle" viewBox="0 0 1024 1024" version="1.1" xmlns="http://www.w3.org/2000/svg" xmlns:xlink="http://www.w3.org/1999/xlink">
	<defs>
		<path fill="currentColor" id="OC" d="M328.996 451.348h-206.643a122 122 0 0 1-122.353-122.352v-206.643a122 122 0 0 1 122.353-122.353h206.643a122 122 0 0 1 122.352 122.353v206.643a122 122 0 0 1-122.352 122.352zm-206.643-387.348a58 58 0 0 0-58.353 58.353v206.643a58 58 0 0 0 58.353 58.352h206.643a58 58 0 0 0 58.352-58.352v-206.643a58 58 0 0 0-58.352-58.353z"/>
	</defs>
	<use xlink:href="#OC"/>
	<use xlink:href="#OC" transform="translate(509.151 0)"/>
	<use xlink:href="#OC" transform="translate(0 509.151)"/>
	<use xlink:href="#OC" transform="translate(509.151 509.151)"/>
</svg>