<svg version="1.1" viewBox="0 0 64 64" width="64" height="64" xmlns="http://www.w3.org/2000/svg">
	<style>path{stroke-width:0.119;stroke:#000}</style>
	<path fill="#FFF" d="M18.569 51.337c-1.832-2.545-3.878-6.254-4.695-8.511s-.963-3.185-1.033-4.781c-.098-2.224.301-3.573 1.536-5.189 2.346-3.069 4.401-6.902 5.544-10.338.928-2.791 1.402-5.817 1.229-7.852-.043-.505-.047-.918 0-.918.114 0 2.038 3 2.688 4.207 2.405 4.465 3.409 7.988 3.271 11.477-.071 1.783-.342 2.986-.971 4.315s-.827 1.533-2.138 3.112c-2.726 3.292-4.467 6.747-4.984 9.897-.229 1.392-.172 3.763.115 4.794.1.355.164.662.144.682s-.337-.383-.706-.895z"/>
	<path fill="#F2F2F2" d="M19.207 51.378c-.255-.823-.296-3.408-.074-4.681.506-2.91 2.022-6.059 4.299-8.927.508-.64 1.207-1.52 1.553-1.956.773-.972 1.586-2.61 1.921-3.873s.435-3.527.245-4.951c-.076-.572-.167-1.113-.201-1.202s.291-.376.983-.793c5.746-3.469 9.312-8.495 9.744-13.735l.083-1.007.435 1.363c2.956 9.255 2.9 17.194-.151 21.63-1.113 1.618-2.855 2.962-4.977 3.84-3.931 1.626-6.812 3.465-9.188 5.863s-3.879 5.116-4.362 7.956l-.162.948z"/>
	<path fill="#B3B3B3" d="M19.556 51.357c0-.639.644-2.68 1.225-3.877 2.087-4.308 5.958-7.564 12.133-10.205 1.706-.73 2.523-1.204 3.473-2.016 1.927-1.646 3.242-4.134 3.777-7.142l.195-1.098 1.48-.514c2.727-.948 5.395-2.246 7.147-3.477s4-3.668 4.474-5.039c.086-.243.172-.424.2-.404.06.067-.438 3.667-.74 5.303-1.81 9.779-5.443 16.457-10.326 18.979-1.339.691-2.422 1-4.372 1.218-8.404 1-14.728 3.615-17.794 7.442-.375.474-.725.902-.777.964s-.095 0-.095-.133z"/>
</svg>
