<?xml version="1.0" encoding="UTF-8" standalone="no"?>
<svg
   viewBox="0 0 144 144"
   width="144px"
   height="144px"
   version="1.1"
   id="svg787"
   sodipodi:docname="left_ptr_win.svg"
   inkscape:version="1.1.1 (3bf5ae0d25, 2021-09-20, custom)"
   xmlns:inkscape="http://www.inkscape.org/namespaces/inkscape"
   xmlns:sodipodi="http://sodipodi.sourceforge.net/DTD/sodipodi-0.dtd"
   xmlns="http://www.w3.org/2000/svg"
   xmlns:svg="http://www.w3.org/2000/svg">
  <defs
     id="defs791" />
  <sodipodi:namedview
     id="namedview789"
     pagecolor="#ffffff"
     bordercolor="#666666"
     borderopacity="1.0"
     inkscape:pageshadow="2"
     inkscape:pageopacity="0.0"
     inkscape:pagecheckerboard="0"
     showgrid="false"
     inkscape:zoom="4.2475512"
     inkscape:cx="86.285012"
     inkscape:cy="84.166144"
     inkscape:window-width="1918"
     inkscape:window-height="1052"
     inkscape:window-x="0"
     inkscape:window-y="26"
     inkscape:window-maximized="1"
     inkscape:current-layer="svg787" />
  <g
     id="surface5785000"
     transform="matrix(1.1340943,0,0,1.1340943,-36.820839,-9.640276)">
    <path
       style="fill:#000000;fill-opacity:1;fill-rule:nonzero;stroke:none"
       d="M 37.28125,9.007812 C 34.886719,9.121094 33,11.097656 33,13.5 v 93 c 0,1.73047 0.992188,3.30859 2.550781,4.05859 1.558594,0.75 3.410157,0.53907 4.761719,-0.54296 L 58.398438,95.539062 74.359375,132.29297 c 0.992187,2.27734 3.640625,3.32031 5.917969,2.33203 l 16.519531,-7.17187 c 2.277344,-0.99219 3.320315,-3.64063 2.332031,-5.91797 L 83.355469,85.207031 107.01563,82.46875 c 1.74218,-0.199219 3.20703,-1.394531 3.7539,-3.0625 0.55078,-1.664062 0.082,-3.496094 -1.19922,-4.695312 l -68.999998,-64.5 C 39.683594,9.382812 38.496094,8.949219 37.28125,9.003906 Z M 42,23.867188 96.328125,74.648438 76.289062,76.964844 C 74.875,77.128906 73.621094,77.953125 72.90625,79.1875 c -0.710938,1.234375 -0.792969,2.730469 -0.226562,4.039062 L 89.082031,120.99219 80.824219,124.57813 64.3125,86.554688 C 63.753906,85.269531 62.628906,84.316406 61.269531,83.980469 59.910156,83.640625 58.46875,83.957031 57.375,84.832031 L 42,97.132812 Z m 0,0"
       id="path784" />
  </g>
  <g
     id="surface5785000-3"
     style="stroke:#000000;stroke-opacity:1"
     transform="matrix(1.1340943,0,0,1.1340943,-36.820839,-9.640276)">
    <path
       style="fill:#ffffff;fill-opacity:1;fill-rule:nonzero;stroke:#000000;stroke-opacity:1"
       d="M 37.28125,9.007812 C 34.886719,9.121094 33,11.097656 33,13.5 v 93 c 0,1.73047 0.992188,3.30859 2.550781,4.05859 1.558594,0.75 3.410157,0.53907 4.761719,-0.54296 L 58.398438,95.539062 74.359375,132.29297 c 0.992187,2.27734 3.640625,3.32031 5.917969,2.33203 l 16.519531,-7.17187 c 2.277344,-0.99219 3.320315,-3.64063 2.332031,-5.91797 L 83.355469,85.207031 107.01563,82.46875 c 1.74218,-0.199219 3.20703,-1.394531 3.7539,-3.0625 0.55078,-1.664062 0.082,-3.496094 -1.19922,-4.695312 l -68.999998,-64.5 C 39.683594,9.382812 38.496094,8.949219 37.28125,9.003906 Z M 42,23.867188 96.328125,74.648438 76.289062,76.964844 C 74.875,77.128906 73.621094,77.953125 72.90625,79.1875 c -0.710938,1.234375 -0.792969,2.730469 -0.226562,4.039062 L 89.082031,120.99219 80.824219,124.57813 64.3125,86.554688 C 63.753906,85.269531 62.628906,84.316406 61.269531,83.980469 59.910156,83.640625 58.46875,83.957031 57.375,84.832031 L 42,97.132812 Z m 0,0"
       id="path784-6" />
  </g>
  <path
     style="fill:#000000;stroke:#000000;stroke-width:0.267;stroke-opacity:1"
     d="m 54.153499,129.64267 c -0.434493,-0.978 -4.669847,-10.72933 -9.411897,-21.66964 -4.742048,-10.940305 -8.845492,-20.213407 -9.118761,-20.606891 -1.253866,-1.805457 -4.054332,-2.548568 -6.117,-1.623163 -0.648333,0.290872 -5.083656,3.657555 -9.856272,7.48152 l -8.677487,6.952664 -0.06839,-20.687019 c -0.03762,-11.377865 -0.03762,-29.912835 0,-41.188827 L 10.972082,17.79951 41.440123,46.265548 C 64.165446,67.49763 71.79874,74.777662 71.477573,74.9129 c -0.236825,0.09972 -5.416807,0.744865 -11.511072,1.433648 -8.331379,0.941628 -11.320561,1.374004 -12.048144,1.742725 -1.932588,0.979392 -3.097304,3.111495 -2.814913,5.152916 0.0838,0.60576 4.304069,10.65329 9.37838,22.327851 5.074313,11.67455 9.255307,21.3967 9.291099,21.60479 0.05795,0.33692 -1.815154,1.24827 -7.986676,3.88585 l -0.842764,0.36019 z"
     id="path6247" />
</svg>
