<?xml version="1.0" encoding="UTF-8" standalone="no"?>
<svg
   version="1.1"
   viewBox="0 0 64 64"
   width="64"
   height="64"
   id="svg4"
   sodipodi:docname="flameshot.svg"
   inkscape:version="1.4.2 (ebf0e940d0, 2025-05-08)"
   xmlns:inkscape="http://www.inkscape.org/namespaces/inkscape"
   xmlns:sodipodi="http://sodipodi.sourceforge.net/DTD/sodipodi-0.dtd"
   xmlns="http://www.w3.org/2000/svg"
   xmlns:svg="http://www.w3.org/2000/svg">
  <defs
     id="defs4" />
  <sodipodi:namedview
     id="namedview4"
     pagecolor="#ffffff"
     bordercolor="#666666"
     borderopacity="1.0"
     inkscape:showpageshadow="2"
     inkscape:pageopacity="0.0"
     inkscape:pagecheckerboard="0"
     inkscape:deskcolor="#d1d1d1"
     inkscape:zoom="9.5569901"
     inkscape:cx="27.414489"
     inkscape:cy="30.396599"
     inkscape:window-width="1920"
     inkscape:window-height="1052"
     inkscape:window-x="0"
     inkscape:window-y="0"
     inkscape:window-maximized="1"
     inkscape:current-layer="svg4" />
  <g
     id="g5"
     inkscape:label="Logo"
     transform="matrix(0.94240792,0,0,0.94240792,1.8429474,1.7795974)">
    <path
       fill="#8800aa"
       d="M 32,0 A 32,32 0 0 1 32,64 32,32 0 0 1 32,0 Z"
       id="path1"
       style="display:inline"
       inkscape:label="background-circle" />
    <path
       fill="#ff0066"
       d="m 34.3017,27.7637 c 18.5541,-3.5813 19.2668,-11.6731 19.2668,-11.6731 0,0 -1.4612,25.0778 -15.0207,26.4046 -17.1831,1.6813 -19.7503,9.7875 -19.7503,9.7875 0,0 4.5952,-22.4132 15.5042,-24.5189 z"
       id="path2"
       style="display:inline"
       inkscape:label="flame-right" />
    <path
       fill="#ff6600"
       d="M 23.1064,26.6572 C 38.8278,20 37.3879,9.1375 37.3879,9.1375 c 0,0 8.6799,22.1583 -4.3324,27.3241 -14.5361,5.7708 -13.8893,15.628 -13.8893,15.628 0,0 -5.2933,-21.5219 3.9401,-25.4323 z"
       id="path3"
       style="display:inline"
       inkscape:label="flame-middle" />
    <path
       fill="#ffcc00"
       d="M 13.8449,32.5477 C 22.6778,20.9 20.691,12.7314 20.691,12.7314 c 0,0 11.309,14.1903 3.616,23 -8.6025,9.8183 -4.8561,16.6489 -4.8561,16.6489 0,0 -10.6723,-13.1315 -5.6061,-19.8119 z"
       id="path4"
       style="display:inline"
       inkscape:label="flame-left" />
  </g>
</svg>
