<?xml version="1.0" encoding="UTF-8"?>
<!DOCTYPE svg PUBLIC "-//W3C//DTD SVG 1.1//EN" "http://www.w3.org/Graphics/SVG/1.1/DTD/svg11.dtd">
<svg xmlns="http://www.w3.org/2000/svg" xmlns:xlink="http://www.w3.org/1999/xlink" version="1.1" viewBox="0 0 64 64" width="64" height="64">
    <path d="M 32,0 C 49.7,0 64,14.3 64,32 64,49.7 49.7,64 32,64 14.3,64 0,49.7 0,32 0,14.3 14.3,0 32,0 Z" fill="#80a"/>
    <path d="M 34.301727,27.763661 C 52.85578,24.182344 53.568489,16.090526 53.568489,16.090526 c 0,0 -1.461162,25.077774 -15.020696,26.404551 -17.183092,1.681337 -19.750268,9.787479 -19.750268,9.787479 0,0 4.595184,-22.413228 15.504202,-24.518895 z" fill="#f06"/>
    <path d="M 23.106366,26.657235 C 38.827819,19.99904 37.387899,9.1374656 37.387899,9.1374656 c 0,0 8.679892,22.1582594 -4.332402,27.3240804 -14.536075,5.770754 -13.88928,15.62802 -13.88928,15.62802 0,0 -5.293267,-21.521885 3.940149,-25.432331 z" fill="#f60"/>
    <path d="m 13.844924,32.547713 c 8.832834,-11.647275 6.84612,-19.816349 6.84612,-19.816349 0,0 11.316725,14.190349 3.61602,22.979377 -8.602482,9.818252 -4.856061,16.648887 -4.856061,16.648887 0,0 -10.6722595,-13.131467 -5.606079,-19.811915 z" fill="#fc0"/>
</svg>
