<svg viewBox="0 0 24 24">
<g transform="matrix(0.03921569,0,0,0.04080994,6.0495425e-6,-0.48784202)">
   <path d="M 3.18,201.694 41.49,231.627 5.433,300.7 c -18.028,31.851 12.943,62.878 32.676,73.679 19.426,10.632 49.577,11.896 77.746,11.513 l 50.704,-82.889 38.31,20.722 L 138.39,200.544 Z M 8.813,370.78 91.066,522.742 c 16.526,21.105 47.7,26.094 80,25.327 h 86.76 V 404.166 L 93.32,403.015 C 67.781,404.548 34.353,399.176 8.813,370.78 Z M 526.309,90.732 481.557,109.727 438.624,44.705 C 419.508,13.496 377.354,25.541 358.342,37.564 339.626,49.4 323.902,75.158 310.581,99.981 l 47.914,84.532 -36.697,23.46 139.966,1.576 z M 375.692,13.686 202.906,11.954 C 176.435,16.175 156.958,41.021 141.97,69.645 L 99.908,145.527 225.769,215.293 306.53,71.97 c 11.039,-23.083 31.944,-49.714 69.162,-58.284 z m 7.516,586.36 5.082,-48.351 77.685,-6.025 c 36.563,-1.59 46.465,-44.297 45.167,-66.755 -1.277,-22.108 -16.184,-48.348 -31.437,-72.033 l -97.162,0.925 -2.729,-43.47 -69.235,121.653 z m 140.407,-94.379 85.283,-150.281 c 9.142,-25.199 -3.146,-54.28 -20.915,-81.266 L 542.007,200.543 419.97,276.8 506.169,416.92 c 14.837,20.845 27.994,52.039 17.446,88.747 z"
   style="fill:#ffffff;fill-opacity:1" />
</g>
</svg>
