<svg viewBox="0 0 24 24">
    <path d="M19 4H5c-1.11 0-2 .9-2 2v12c0 1.1.89 2 2 2h4v-2H5V8h14v10h-4v2h4c1.1 0 2-.9 2-2V6c0-1.1-.89-2-2-2zm-7 6l-4 4h3v6h2v-6h3l-4-4z" fill="#fff"/>
    <path d="M 4.198234,19.778391 C 3.7176061,19.568619 3.2251261,18.939838 3.1058504,18.383675 2.9582027,17.695218 2.958749,6.3034296 3.1064628,5.6146641 3.2377064,5.0026963 3.8101581,4.3320483 4.3300656,4.181169 4.5640205,4.1132743 7.143815,4.0896738 12.220084,4.1089894 l 7.542403,0.028699 0.36845,0.2932257 c 0.202647,0.1612741 0.465536,0.4832555 0.584199,0.7155141 l 0.215751,0.4222884 V 11.97605 c 0,6.919572 0.009,6.789901 -0.507995,7.344116 -0.512385,0.549308 -0.73473,0.591284 -3.131972,0.591284 h -2.20927 v -0.910946 -0.910947 h 1.965727 1.965727 V 13.006811 7.9240647 l -7.023878,0.024595 -7.023879,0.024595 v 5.0341793 5.034179 l 1.9896994,0.02592 1.9896994,0.02592 v 0.909001 0.909001 l -2.2294222,-0.0037 c -1.61992,-0.0027 -2.3080677,-0.03808 -2.5170896,-0.129306 z" fill="#fff"/>
    <path d="M 11.054307,16.938887 V 13.966324 H 9.5922933 8.1302801 l 1.9414589,-1.941459 1.941459,-1.941458 1.941459,1.941458 1.941459,1.941459 h -1.462014 -1.462013 v 2.972563 2.972563 h -0.958891 -0.958891 z" fill="#fff"/>
</svg>
