<?xml version="1.0" encoding="UTF-8" standalone="no"?>
<svg
   xmlns:dc="http://purl.org/dc/elements/1.1/"
   xmlns:cc="http://creativecommons.org/ns#"
   xmlns:rdf="http://www.w3.org/1999/02/22-rdf-syntax-ns#"
   xmlns:svg="http://www.w3.org/2000/svg"
   xmlns="http://www.w3.org/2000/svg"
   xmlns:sodipodi="http://sodipodi.sourceforge.net/DTD/sodipodi-0.dtd"
   xmlns:inkscape="http://www.inkscape.org/namespaces/inkscape"
   width="24"
   height="24"
   viewBox="0 0 24 24"
   version="1.1"
   id="svg4"
   sodipodi:docname="open_with_.svg"
   inkscape:version="0.92.2 (5c3e80d, 2017-08-06)">
  <metadata
     id="metadata10">
    <rdf:RDF>
      <cc:Work
         rdf:about="">
        <dc:format>image/svg+xml</dc:format>
        <dc:type
           rdf:resource="http://purl.org/dc/dcmitype/StillImage" />
        <dc:title />
      </cc:Work>
    </rdf:RDF>
  </metadata>
  <defs
     id="defs8" />
  <sodipodi:namedview
     pagecolor="#ffffff"
     bordercolor="#666666"
     borderopacity="1"
     objecttolerance="10"
     gridtolerance="10"
     guidetolerance="10"
     inkscape:pageopacity="0"
     inkscape:pageshadow="2"
     inkscape:window-width="1328"
     inkscape:window-height="739"
     id="namedview6"
     showgrid="false"
     inkscape:zoom="18.873951"
     inkscape:cx="16.78602"
     inkscape:cy="10.666114"
     inkscape:window-x="38"
     inkscape:window-y="0"
     inkscape:window-maximized="1"
     inkscape:current-layer="svg4" />
  <path
     d="M19 4H5c-1.11 0-2 .9-2 2v12c0 1.1.89 2 2 2h4v-2H5V8h14v10h-4v2h4c1.1 0 2-.9 2-2V6c0-1.1-.89-2-2-2zm-7 6l-4 4h3v6h2v-6h3l-4-4z"
     id="path2"
     style="fill:#ffffff;fill-opacity:1" />
  <path
     style="fill:#ffffff;stroke-width:0.09588913"
     d="M 4.198234,19.778391 C 3.7176061,19.568619 3.2251261,18.939838 3.1058504,18.383675 2.9582027,17.695218 2.958749,6.3034296 3.1064628,5.6146641 3.2377064,5.0026963 3.8101581,4.3320483 4.3300656,4.181169 4.5640205,4.1132743 7.143815,4.0896738 12.220084,4.1089894 l 7.542403,0.028699 0.36845,0.2932257 c 0.202647,0.1612741 0.465536,0.4832555 0.584199,0.7155141 l 0.215751,0.4222884 V 11.97605 c 0,6.919572 0.009,6.789901 -0.507995,7.344116 -0.512385,0.549308 -0.73473,0.591284 -3.131972,0.591284 h -2.20927 v -0.910946 -0.910947 h 1.965727 1.965727 V 13.006811 7.9240647 l -7.023878,0.024595 -7.023879,0.024595 v 5.0341793 5.034179 l 1.9896994,0.02592 1.9896994,0.02592 v 0.909001 0.909001 l -2.2294222,-0.0037 c -1.61992,-0.0027 -2.3080677,-0.03808 -2.5170896,-0.129306 z"
     id="path23"
     inkscape:connector-curvature="0" />
  <path
     style="fill:#ffffff;stroke-width:0.09588913"
     d="M 11.054307,16.938887 V 13.966324 H 9.5922933 8.1302801 l 1.9414589,-1.941459 1.941459,-1.941458 1.941459,1.941458 1.941459,1.941459 h -1.462014 -1.462013 v 2.972563 2.972563 h -0.958891 -0.958891 z"
     id="path25"
     inkscape:connector-curvature="0" />
</svg>
