<?xml version="1.0" encoding="UTF-8" ?>
<!DOCTYPE svg PUBLIC "-//W3C//DTD SVG 1.1//EN" "http://www.w3.org/Graphics/SVG/1.1/DTD/svg11.dtd">
<svg width="48pt" height="48pt" viewBox="0 0 48 48" version="1.1" xmlns="http://www.w3.org/2000/svg">
<g id="#ffffffff">
<path fill="#ffffff" opacity="1.00" d=" M 29.79 6.79 C 30.46 5.93 31.44 4.06 32.77 5.08 C 35.89 7.68 38.56 10.77 41.50 13.56 C 42.20 14.47 43.93 15.57 42.91 16.86 C 39.56 19.65 35.68 21.73 32.18 24.33 C 29.34 21.48 26.44 18.70 23.61 15.83 C 25.66 12.81 27.70 9.78 29.79 6.79 Z" />
<path fill="#ffffff" opacity="1.00" d=" M 9.53 20.16 C 12.73 17.53 17.48 16.67 21.08 19.02 C 23.92 21.13 26.37 23.75 28.65 26.45 C 31.40 30.00 30.62 35.13 27.81 38.41 C 25.08 35.83 22.46 33.13 19.76 30.50 C 15.81 34.29 12.13 38.36 8.02 41.98 C 7.51 41.49 6.50 40.51 6.00 40.02 C 9.59 35.85 13.70 32.16 17.51 28.19 C 14.81 25.55 12.17 22.86 9.53 20.16 Z" />
</g>
</svg>
