<svg viewBox="0 0 512.000000 511.000000">
<g transform="translate(0.000000,511.000000) scale(0.100000,-0.100000)"
fill="#fff" stroke="none">
<path d="M1190 4464 c-19 -2 -80 -9 -135 -15 -596 -64 -1086 -291 -1050 -486
16 -90 199 -219 425 -301 523 -190 1329 -216 1941 -61 368 92 649 274 625 403
-29 152 -361 323 -786 405 -229 45 -326 53 -660 56 -179 2 -341 1 -360 -1z"/>
<path d="M2 3162 l3 -369 30 -43 c113 -163 507 -313 993 -377 193 -25 759 -25
942 0 201 28 184 21 209 83 13 29 55 102 94 161 153 233 406 434 660 524 l67
24 0 182 c0 101 -3 183 -6 183 -3 0 -31 -15 -62 -33 -223 -129 -545 -220 -972
-274 -192 -24 -730 -24 -920 0 -430 54 -749 144 -972 274 -31 18 -59 33 -63
33 -3 0 -4 -166 -3 -368z"/>
<path d="M3300 2919 c-483 -42 -882 -429 -945 -917 -5 -40 -11 -52 -21 -48
-104 40 -165 51 -279 50 -101 -1 -132 -5 -200 -27 -230 -76 -406 -265 -461
-493 -20 -82 -22 -226 -5 -309 16 -79 89 -227 143 -292 89 -108 218 -190 359
-230 60 -17 141 -18 1409 -18 l1345 0 73 24 c409 134 535 647 233 949 -115
116 -284 181 -432 168 l-66 -6 -5 138 c-6 153 -26 249 -82 381 -143 338 -500
602 -849 626 -45 4 -91 7 -102 9 -11 2 -63 -1 -115 -5z"/>
<path d="M0 2018 c0 -334 1 -361 19 -396 88 -170 473 -328 965 -396 l99 -13
-6 56 c-7 66 8 223 29 301 43 155 124 303 233 422 l50 55 -139 7 c-246 11
-556 61 -768 122 -148 43 -232 76 -359 140 l-123 62 0 -360z"/>
</g>
</svg>
