<?xml version="1.0" encoding="UTF-8" standalone="no"?>
<svg
   clip-rule="evenodd"
   fill-rule="evenodd"
   height="24"
   stroke-linejoin="round"
   stroke-miterlimit="2"
   viewBox="0 0 1.125 1.125"
   width="24"
   version="1.1"
   id="svg3"
   sodipodi:docname="free-icon-printer-6547498.svg"
   inkscape:export-filename="content-print-B.svg"
   inkscape:export-xdpi="96"
   inkscape:export-ydpi="96"
   xmlns:inkscape="http://www.inkscape.org/namespaces/inkscape"
   xmlns:sodipodi="http://sodipodi.sourceforge.net/DTD/sodipodi-0.dtd"
   xmlns="http://www.w3.org/2000/svg"
   xmlns:svg="http://www.w3.org/2000/svg">
  <defs
     id="defs3" />
  <sodipodi:namedview
     id="namedview3"
     pagecolor="#ffffff"
     bordercolor="#000000"
     borderopacity="0.25"
     inkscape:showpageshadow="2"
     inkscape:pageopacity="0.0"
     inkscape:pagecheckerboard="true"
     inkscape:deskcolor="#d1d1d1" />
  <g
     id="Icon"
     transform="matrix(0.04573171,0,0,0.04361277,0.01371951,0.03914681)">
    <path
       d="M 4.25,18.739 V 15 c 0,-0.966 0.784,-1.75 1.75,-1.75 h 12 c 0.966,0 1.75,0.784 1.75,1.75 v 3.739 c 0.638,-0.059 1.238,-0.338 1.695,-0.794 0.515,-0.516 0.805,-1.216 0.805,-1.945 0,-1.986 0,-5.014 0,-7 0,-0.729 -0.29,-1.429 -0.805,-1.945 C 20.929,6.54 20.229,6.25 19.5,6.25 H 4.5 C 3.771,6.25 3.071,6.54 2.555,7.055 2.04,7.571 1.75,8.271 1.75,9 v 7 c 0,0.729 0.29,1.429 0.805,1.945 0.457,0.456 1.057,0.735 1.695,0.794 z M 18.5,9.25 h -2 c -0.414,0 -0.75,0.336 -0.75,0.75 0,0.414 0.336,0.75 0.75,0.75 h 2 c 0.414,0 0.75,-0.336 0.75,-0.75 0,-0.414 -0.336,-0.75 -0.75,-0.75 z"
       id="path1" />
    <path
       d="m 5.25,5.25 h 13.5 V 3.002 C 18.75,2.538 18.566,2.093 18.237,1.765 17.909,1.436 17.464,1.252 17,1.252 c -2.26,0 -7.74,0 -10,0 -0.464,0 -0.909,0.184 -1.237,0.513 C 5.434,2.093 5.25,2.538 5.25,3.002 Z"
       id="path2" />
    <path
       d="M 18.75,20.998 V 15 c 0,-0.414 -0.336,-0.75 -0.75,-0.75 H 6 c -0.414,0 -0.75,0.336 -0.75,0.75 v 5.998 c 0,0.966 0.784,1.75 1.75,1.75 h 10 c 0.966,0 1.75,-0.784 1.75,-1.75 z"
       id="path3" />
  </g>
  <path
     style="fill:#ffffff;stroke:#000000;stroke-width:0.00323688"
     d="M 0.30264809,1.0225915 C 0.28468919,1.0144622 0.27184598,1.002579 0.26269989,0.98562933 0.25591911,0.97306312 0.2556834,0.9687735 0.25469608,0.83996986 0.25413657,0.76697822 0.25457067,0.701196 0.25566075,0.69378703 c 0.001211,-0.008234 0.005239,-0.0167278 0.0103601,-0.0218489 l 0.008378,-0.008378 H 0.5622886 0.85017835 l 0.009462,0.009462 0.009462,0.009462 V 0.8261378 0.96979233 l -0.008427,0.0169104 c -0.004635,0.009301 -0.0131102,0.0204826 -0.0188343,0.0248485 -0.0238216,0.01817 -0.0176572,0.017782 -0.28145845,0.017705 -0.23763571,-7.03e-5 -0.24349949,-2.203e-4 -0.25773405,-0.00666 z"
     id="path6" />
  <path
     style="fill:#ffffff;stroke:#000000;stroke-width:0.00323688"
     d="m 0.18450204,0.84999722 c -0.035025,-0.011106 -0.0628961,-0.0345709 -0.0782776,-0.0659024 L 0.09710634,0.76552162 V 0.58425647 0.40299131 l 0.0091181,-0.0185732 c 0.0121069,-0.0246612 0.0346735,-0.0466238 0.0604655,-0.0588471 l 0.021049,-0.009975 h 0.37547785 0.37547784 l 0.0215409,0.0105382 c 0.0266842,0.0130544 0.0510592,0.0386762 0.0615802,0.06473 l 0.00751,0.0186012 v 0.17479141 0.17479144 l -0.00751,0.0186012 c -0.014572,0.0360857 -0.0541325,0.0683437 -0.0920225,0.0750361 l -0.0121383,0.002144 v -0.0892648 c 0,-0.0985249 -8.5969e-4,-0.10375753 -0.0203945,-0.1241369 -0.005696,-0.005942 -0.0161822,-0.0139532 -0.0233033,-0.0178029 l -0.0129476,-0.007 -0.29106736,-8.7656e-4 c -0.32995326,-9.9422e-4 -0.3147173,-0.002042 -0.34015709,0.0233978 -0.0222274,0.0222275 -0.0242434,0.0331886 -0.0242434,0.13181822 0,0.0648146 -9.0811e-4,0.0835227 -0.004046,0.0833548 -0.002225,-1.1719e-4 -0.009872,-0.002064 -0.0169937,-0.004322 z M 0.88553512,0.4987282 c 0.0131998,-0.0131998 0.0132063,-0.0315615 1.655e-5,-0.0463234 L 0.87610667,0.4418339 H 0.8140748 0.75204309 l -0.009445,0.0105709 c -0.0131897,0.0147619 -0.0131832,0.0331237 1.655e-5,0.0463234 l 0.009462,0.009462 h 0.0619987 0.0619987 z"
     id="path7" />
  <path
     style="fill:#ffffff;stroke:#000000;stroke-width:0.00323688"
     d="m 0.25465793,0.20958785 c 9.996e-4,-0.0463723 0.002232,-0.0579322 0.007271,-0.0682025 0.008182,-0.0166761 0.0230438,-0.0309737 0.0406827,-0.0391384 0.0143196,-0.0066282 0.019134,-0.0067771 0.24869941,-0.0076893 0.1520475,-6.0422e-4 0.24053897,2.4843e-4 0.25247649,0.0024329 0.0219216,0.0040113 0.0404258,0.01612142 0.0538946,0.03527135 l 0.009801,0.0139351 0.001066,0.0596135 0.001066,0.0596135 H 0.56153531 0.25345452 Z"
     id="path8" />
</svg>
