<svg xmlns="http://www.w3.org/2000/svg" version="1.1" viewBox="0 0 24 24" width="24" height="24">
	<path fill="white" d="M20.67 8.85a.79.79 0 00-1.58 0V19.1c0 .87-.71 1.58-1.58 1.58H6.48A1.58 1.58 0 014.9 19.1V8.85a.79.79 0 00-1.58 0V19.1a3.15 3.15 0 003.15 3.15h11.04a3.15 3.15 0 003.15-3.15zm-11.82 0a.79.79 0 00-1.58 0v8.67a.79.79 0 001.58 0zm3.95 0a.79.79 0 00-1.58 0v8.67a.79.79 0 001.58 0zm3.95 0a.79.79 0 00-1.58 0v8.67a.79.79 0 001.58 0zm-1.6-3.94V2.54a.79.79 0 00-.79-.79H9.63a.79.79 0 00-.79.79V4.9h-6.3a.79.79 0 000 1.58h18.92a.79.79 0 000-1.58zm-1.56 0h-3.17V3.33h3.15z"/>
</svg>