<svg viewBox="0 0 77 98.5">
    <g fill="#FFF">
        <path d="M70.9,49.2l-16.5,0.1c-2.2,0-4.1,1.8-4,4.1v6.9c0,6.9-5.5,12.5-12.4,12.5c-0.4,0-0.9,0-1.3-0.1
										c-5.6-0.5-10.3-5-11.1-10.6c-0.5-3.3,0.4-6.6,2.5-9.2c2.3-2.9,6-5,10-5c14.6-0.1,21.8-4.3,27.6-10.1C77.3,26,75.4,17.9,75.3,7.3
										c-0.1-2.4-2-4.2-4.4-4.2H54.3c-2.4,0-4.3,1.9-4.2,4.3v2.8c0,6.9-5.5,12.5-12.3,12.5h-0.1c-9.6,0-18.8,3.7-25.8,10.3
										C4.3,40.1-0.1,50.2,0,60.5C0.1,81.2,17.2,98,38,97.9c0.6,0,1.2,0,1.8-0.1C60,96.8,75.7,80,75.6,59.6v-5.8
										C75.6,51.2,73.5,49.1,70.9,49.2z" />
    </g>
</svg>