<svg xmlns="http://www.w3.org/2000/svg" xmlns:xlink="http://www.w3.org/1999/xlink" aria-hidden="true" focusable="false" role="img" width="1025" height="1024" preserveAspectRatio="xMidYMid meet" style="transform: rotate(360deg);"><rect id="backgroundrect" width="100%" height="100%" x="0" y="0" fill="none" stroke="none"/><g class="currentLayer" style=""><title>Layer 1</title><path d="M896.428 1024h-768q-53 0-90.5-37.5T.428 896V128q0-53 37.5-90.5t90.5-37.5h768q53 0 90.5 37.5t37.5 90.5v768q0 53-37.5 90.5t-90.5 37.5zm0-768q0-53-38-91l-120 121q-44-45-102.5-69.5t-123.5-24.5q-87 0-160.5 43t-116.5 116.5t-43 160.5q0 65 24.5 123.5t69.5 102.5l-121 121q38 37 91 37h512q53 0 90.5-37.5t37.5-90.5V256zm-384 576q-133 0-226-94l452-452q45 44 69.5 102.5t24.5 123.5q0 87-43 160.5T672.928 789t-160.5 43z" fill="#ffffff" id="svg_1" class="selected" fill-opacity="1"/></g></svg>