<svg xmlns="http://www.w3.org/2000/svg" viewBox="0 0 24 24">
    <path fill="#FFF" d="m3.89741,15.583116l0,5.077015l4.806798,0l0,1.546766l-6.221448,0l0,-6.623781l1.41465,0zm17.734481,0l0,6.623781l-6.270748,0l0,-1.546766l4.854729,0l0,-5.077015l1.41465,0l0.001369,0zm-8.526246,-9.73484l4.97798,11.684729l-2.213044,0l-1.027094,-2.4202l-5.0533,0l-0.947665,2.4202l-2.213044,0l4.661635,-11.684729l1.815901,0l-0.001369,0zm-0.868236,3.08769l-1.620069,4.048759l3.318197,0l-1.698128,-4.048759zm-3.533202,-7.177345l0,1.495645l-4.806798,0l0,6.588727l-1.41465,0l0,-8.084372l6.221448,0zm12.950964,0l0,6.623781l-1.41465,0l0,-5.128136l-4.867054,0l0,-1.495645l6.281704,0z"/>
</svg>
