<?xml version="1.0" encoding="UTF-8" standalone="no"?>
<svg
   fill="none"
   height="25"
   viewBox="0 0 1.171875 1.171875"
   width="25"
   version="1.1"
   id="svg2"
   xmlns="http://www.w3.org/2000/svg"
   xmlns:svg="http://www.w3.org/2000/svg">
  <defs
     id="defs2" />
  <g
     fill="#000000"
     id="g2"
     transform="matrix(0.06738281,0,0,0.05390625,-0.22265624,-0.0609375)">
    <path
       d="m 8.26702,14.6802 c -0.184,0 -0.308,0.018 -0.372,0.036 v 1.178 c 0.076,0.018 0.171,0.023 0.302,0.023 0.479,0 0.774,-0.242 0.774,-0.651 0,-0.366 -0.254,-0.586 -0.704,-0.586 z m 3.48698,0.012 c -0.2,0 -0.33,0.018 -0.407,0.036 v 2.61 c 0.077,0.018 0.201,0.018 0.313,0.018 0.817,0.006 1.349,-0.444 1.349,-1.396 0.006,-0.83 -0.479,-1.268 -1.255,-1.268 z"
       id="path1" />
    <path
       d="M 14,2 H 6 C 5.46957,2 4.96086,2.21071 4.58579,2.58579 4.21071,2.96086 4,3.46957 4,4 v 16 c 0,0.5304 0.21071,1.0391 0.58579,1.4142 C 4.96086,21.7893 5.46957,22 6,22 h 12 c 0.5304,0 1.0391,-0.2107 1.4142,-0.5858 C 19.7893,21.0391 20,20.5304 20,20 V 8 Z M 9.498,16.19 C 9.189,16.48 8.733,16.61 8.202,16.61 8.09904,16.6111 7.99613,16.6051 7.894,16.592 v 1.426 H 7 V 14.082 C 7.40345,14.0218 7.81112,13.9944 8.219,14 c 0.557,0 0.953,0.106 1.22,0.319 0.254,0.202 0.426,0.533 0.426,0.923 -10e-4,0.392 -0.131,0.723 -0.367,0.948 z m 3.807,1.355 c -0.42,0.349 -1.059,0.515 -1.84,0.515 -0.468,0 -0.799,-0.03 -1.024,-0.06 v -3.917 c 0.4036,-0.0589 0.8111,-0.0867 1.219,-0.083 0.757,0 1.249,0.136 1.633,0.426 0.415,0.308 0.675,0.799 0.675,1.504 0,0.763 -0.279,1.29 -0.663,1.615 z M 17,14.77 h -1.532 v 0.911 H 16.9 v 0.734 h -1.432 v 1.604 H 14.562 V 14.03 H 17 Z M 14,9 H 13 V 4 l 5,5 z"
       id="path2" />
  </g>
  <path
     style="fill:#ffffff;stroke:#000000;stroke-width:0.00414365"
     d="M 0.13219439,1.1144908 C 0.10270887,1.1050972 0.07255621,1.0806687 0.05887373,1.0550893 l -0.00915,-0.017106 V 0.58632595 c 0,-0.4369726 2.5875e-4,-0.45217828 0.0079515,-0.46767663 C 0.06881541,0.0962064 0.09136852,0.0752872 0.11809392,0.06260787 L 0.14088402,0.05179558 0.43027127,0.05065068 0.71965851,0.04950578 0.92246995,0.21173272 1.1252813,0.37395966 1.1241013,0.7038997 c -0.0011,0.307247 -0.00169,0.33108 -0.00863,0.3465146 -0.0108,0.024017 -0.033446,0.045301 -0.062466,0.058711 l -0.025384,0.011731 -0.43508287,8.419e-4 C 0.17193211,1.122512 0.15661807,1.122272 0.13219434,1.114491 Z M 0.62983425,0.90537286 c 0.0350292,-0.009137 0.0596347,-0.0254891 0.0744761,-0.0494942 0.0105258,-0.0170248 0.0127727,-0.0253925 0.0139862,-0.0520838 0.001177,-0.0258917 -1.4532e-4,-0.0349157 -0.007108,-0.0485678 -0.0114945,-0.022531 -0.0373053,-0.043845 -0.0637601,-0.0526517 -0.0253103,-0.008426 -0.10065821,-0.0130844 -0.14127324,-0.008735 l -0.0275635,0.002952 v 0.10716675 0.1071667 l 0.0176105,0.001874 c 0.0316637,0.00337 0.10822603,-9.9985e-4 0.13363204,-0.007627 z M 0.31284531,0.87492356 v -0.0366787 l 0.0340143,-0.002623 c 0.0406909,-0.003138 0.0744428,-0.0176407 0.0862541,-0.0370629 0.0214927,-0.0353419 0.009986,-0.0750097 -0.027161,-0.0936326 -0.0172581,-0.008652 -0.0281003,-0.0106186 -0.0669402,-0.0121419 -0.0254906,-9.9984e-4 -0.0567234,-5.2125e-4 -0.0694061,0.001064 l -0.0230595,0.002881 v 0.10743665 0.10743666 h 0.0331492 0.0331492 z m 0.50966849,-0.00683 v -0.0435083 h 0.047652 0.047652 v -0.0207182 -0.0207182 h -0.047652 -0.047652 v -0.02279 -0.0227901 H 0.8743094 0.926105 V 0.71477902 0.69198895 H 0.8411602 0.75621548 v 0.10980661 0.10980666 h 0.0331492 0.0331492 z M 0.99240333,0.42477741 c 0,-0.00198 -0.32444245,-0.26262065 -0.33459947,-0.26880029 -0.004103,-0.002496 -0.00518,0.0253274 -0.00518,0.13383358 V 0.42679558 H 0.8225138 c 0.0934393,0 0.16988953,-9.0815e-4 0.16988953,-0.002018 z"
     id="path3" />
  <path
     style="fill:#ffffff;stroke:#000000;stroke-width:0.00414365"
     d="m 0.54784027,0.87173531 c -0.001623,-0.001623 -0.002951,-0.0336518 -0.002951,-0.0711753 v -0.0682244 l 0.030614,0.001965 c 0.0514929,0.003305 0.0749109,0.0235095 0.0749109,0.0646325 0,0.0307473 -0.0105787,0.0491961 -0.0352095,0.0614044 -0.0189637,0.009399 -0.0620699,0.0166929 -0.0673644,0.0113978 z"
     id="path4" />
  <path
     style="fill:#ffffff;stroke:#000000;stroke-width:0.00414365"
     d="m 0.31284531,0.76453191 v -0.0321025 l 0.0247066,0.001787 c 0.0299134,0.002164 0.0426038,0.0114004 0.0407569,0.0296648 -0.00168,0.0166102 -0.0184954,0.0282401 -0.0444366,0.0307328 l -0.0210269,0.00202 z"
     id="path5" />
</svg>
