 <svg  version="1.0" xmlns="http://www.w3.org/2000/svg"  width="900.000000pt" height="900.000000pt" viewBox="0 0 900.000000 900.000000"  preserveAspectRatio="xMidYMid meet">  <g transform="translate(0.000000,900.000000) scale(0.100000,-0.100000)" fill="#ffffff" stroke="none"> <path d="M4458 8983 c-3 -10 -25 -28 -49 -41 -24 -13 -57 -32 -74 -42 -16 -11 -37 -23 -45 -27 -8 -4 -58 -32 -110 -63 -52 -31 -102 -59 -110 -63 -8 -4 -28 -16 -45 -27 -16 -11 -37 -23 -45 -27 -18 -8 -208 -118 -230 -133 -8 -6 -24 -15 -35 -20 -11 -6 -33 -19 -50 -30 -16 -11 -37 -23 -45 -27 -8 -4 -46 -25 -85 -48 -38 -22 -77 -44 -85 -48 -8 -4 -28 -16 -45 -27 -16 -11 -39 -24 -50 -30 -11 -6 -29 -16 -40 -23 -11 -7 -63 -37 -115 -67 -52 -30 -104 -60 -115 -67 -11 -7 -29 -17 -40 -23 -11 -6 -33 -19 -50 -30 -16 -11 -37 -23 -45 -27 -8 -4 -58 -32 -110 -63 -52 -31 -102 -59 -110 -63 -8 -4 -28 -16 -45 -27 -16 -11 -37 -23 -45 -27 -18 -8 -208 -118 -230 -133 -8 -6 -24 -15 -35 -20 -11 -6 -33 -19 -50 -30 -16 -11 -37 -23 -45 -27 -8 -4 -46 -26 -85 -48 -38 -23 -77 -44 -85 -48 -8 -4 -28 -16 -45 -27 -16 -11 -39 -24 -50 -30 -11 -6 -33 -19 -50 -30 -16 -11 -39 -24 -51 -29 -11 -5 -50 -27 -85 -48 -35 -22 -71 -42 -79 -46 -8 -4 -28 -16 -45 -27 -16 -11 -37 -23 -45 -27 -18 -8 -208 -118 -230 -133 -8 -6 -24 -15 -35 -20 -11 -6 -33 -19 -50 -30 -16 -11 -37 -23 -45 -27 -8 -4 -58 -32 -110 -63 -52 -31 -102 -59 -110 -63 -8 -4 -28 -16 -45 -27 -16 -11 -37 -23 -45 -27 -8 -4 -69 -39 -135 -78 -66 -39 -127 -74 -135 -78 -33 -17 -61 -35 -80 -52 -20 -18 -20 -28 -20 -2255 0 -2227 0 -2237 20 -2255 19 -17 47 -35 80 -52 8 -4 69 -39 135 -78 66 -39 127 -74 135 -78 8 -4 29 -16 45 -27 17 -11 37 -23 45 -27 8 -4 58 -32 110 -63 52 -31 102 -59 110 -63 8 -4 29 -16 45 -27 17 -11 37 -23 45 -27 8 -4 69 -39 135 -78 66 -39 127 -74 135 -78 8 -4 29 -16 45 -27 17 -11 37 -23 45 -27 8 -4 44 -24 79 -46 35 -21 74 -43 85 -48 12 -5 35 -18 51 -29 17 -11 39 -24 50 -30 11 -6 34 -19 50 -30 17 -11 37 -23 45 -27 18 -8 158 -89 180 -103 8 -6 24 -15 35 -20 11 -6 34 -19 50 -30 17 -11 37 -23 45 -27 8 -4 58 -32 110 -63 52 -31 102 -59 110 -63 8 -4 29 -16 45 -27 17 -11 37 -23 45 -27 18 -8 208 -118 230 -133 8 -6 24 -15 35 -20 11 -6 34 -19 50 -30 17 -11 37 -23 45 -27 8 -4 58 -32 110 -63 52 -31 102 -59 110 -63 8 -4 29 -16 45 -27 17 -11 37 -23 45 -27 8 -4 47 -26 85 -48 39 -23 77 -44 85 -48 8 -4 29 -16 45 -27 17 -11 39 -24 50 -30 11 -6 34 -19 50 -30 17 -11 37 -23 45 -27 8 -4 47 -25 85 -48 39 -22 77 -44 85 -48 8 -4 29 -16 45 -27 17 -11 39 -24 50 -30 11 -6 29 -16 40 -23 11 -7 52 -30 90 -52 39 -22 79 -45 90 -52 11 -7 29 -17 40 -23 11 -6 34 -19 50 -30 17 -11 37 -23 45 -27 8 -3 32 -17 52 -30 47 -29 69 -29 116 0 20 13 44 27 52 30 8 4 29 16 45 27 17 11 39 24 50 30 11 6 29 16 40 23 11 7 51 30 90 52 38 22 79 45 90 52 11 7 29 17 40 23 11 6 34 19 50 30 17 11 37 23 45 27 17 8 158 89 180 103 8 6 24 15 35 20 11 6 34 19 50 30 17 11 37 23 45 27 8 4 58 32 110 63 52 31 102 59 110 63 8 4 29 16 45 27 17 11 37 23 45 27 18 8 208 118 230 133 8 6 24 15 35 20 11 6 34 19 50 30 17 11 37 23 45 27 8 4 58 32 110 63 52 31 102 59 110 63 8 4 29 16 45 27 17 11 37 23 45 27 16 8 206 117 230 133 8 6 24 15 35 20 11 6 34 19 50 30 17 11 37 23 45 27 8 4 47 26 85 48 39 23 77 44 85 48 8 4 29 16 45 27 17 11 39 24 50 30 11 6 34 19 50 30 17 11 37 23 45 27 8 4 47 25 85 48 39 22 77 44 85 48 8 4 29 16 45 27 17 11 37 23 45 27 8 4 69 39 135 78 66 39 127 74 135 78 8 4 29 16 45 27 17 11 37 23 45 27 8 4 58 32 110 63 52 31 102 59 110 63 8 4 29 16 45 27 17 11 37 23 45 27 8 4 69 39 135 78 66 39 127 74 135 78 32 16 61 35 80 52 20 18 20 28 20 2255 0 2227 0 2237 -20 2255 -19 17 -48 36 -80 52 -8 4 -69 39 -135 78 -66 39 -127 74 -135 78 -8 4 -28 16 -45 27 -16 11 -37 23 -45 27 -8 4 -58 32 -110 63 -52 31 -102 59 -110 63 -8 4 -28 16 -45 27 -16 11 -37 23 -45 27 -8 4 -69 39 -135 78 -66 39 -127 74 -135 78 -8 4 -28 16 -45 27 -16 11 -37 23 -45 27 -8 4 -46 26 -85 48 -38 23 -77 44 -85 48 -8 4 -28 16 -45 27 -16 11 -39 24 -50 30 -11 6 -33 19 -50 30 -16 11 -37 23 -45 27 -8 4 -46 25 -85 48 -38 22 -77 44 -85 48 -8 4 -28 16 -45 27 -16 11 -37 23 -45 27 -8 4 -58 32 -110 63 -52 31 -102 59 -110 63 -8 4 -28 16 -45 27 -16 11 -39 24 -50 30 -11 6 -29 16 -40 23 -11 7 -63 37 -115 67 -52 30 -104 60 -115 67 -11 7 -29 17 -40 23 -11 6 -33 19 -50 30 -16 11 -37 23 -45 27 -8 4 -58 32 -110 63 -52 31 -102 59 -110 63 -8 4 -28 16 -45 27 -16 11 -37 23 -45 27 -8 4 -46 26 -85 48 -38 23 -77 44 -85 48 -8 4 -28 16 -45 27 -16 11 -39 24 -50 30 -11 6 -33 19 -50 30 -16 11 -37 23 -45 27 -8 4 -46 25 -85 48 -38 22 -77 44 -85 48 -8 4 -28 16 -45 27 -16 11 -37 23 -45 27 -18 8 -208 118 -230 133 -8 6 -24 15 -35 20 -11 6 -33 19 -50 30 -16 10 -50 29 -74 42 -24 13 -46 31 -49 41 -3 11 -14 17 -32 17 -18 0 -29 -6 -32 -17z m-280 -1395 l2 -476 -27 -18 c-37 -25 -65 -42 -83 -50 -8 -4 -58 -33 -110 -64 -52 -31 -102 -59 -110 -63 -8 -4 -28 -16 -45 -27 -16 -11 -37 -23 -45 -27 -8 -4 -58 -32 -110 -63 -52 -31 -102 -59 -110 -63 -8 -4 -28 -16 -45 -27 -16 -11 -37 -23 -45 -27 -8 -4 -69 -39 -135 -78 -66 -39 -127 -74 -135 -78 -8 -4 -28 -16 -45 -27 -16 -11 -37 -23 -45 -27 -8 -4 -46 -25 -85 -48 -38 -22 -77 -44 -85 -48 -8 -4 -28 -16 -45 -27 -16 -11 -37 -23 -45 -27 -18 -8 -208 -118 -230 -133 -8 -6 -24 -15 -35 -20 -11 -6 -33 -19 -50 -30 -71 -47 -89 -47 -160 -1 -53 34 -76 48 -100 61 -11 6 -33 19 -50 30 -16 11 -39 24 -50 30 -11 6 -33 19 -50 30 -16 11 -39 24 -50 30 -11 6 -33 19 -50 30 -16 11 -39 24 -50 30 -11 6 -33 19 -50 30 -16 11 -39 24 -50 30 -11 6 -33 19 -50 30 -16 11 -39 24 -50 30 -11 6 -33 19 -50 30 -16 11 -40 24 -52 30 -32 13 -29 45 5 63 49 25 126 68 157 88 17 10 39 23 50 29 11 6 34 19 50 30 17 11 37 23 45 27 8 4 47 26 85 48 39 23 77 44 85 48 8 4 29 16 45 27 17 11 37 23 45 27 8 4 69 39 135 78 66 39 127 74 135 78 8 4 29 16 45 27 17 11 37 23 45 27 8 4 58 32 110 63 52 31 102 59 110 63 8 4 29 16 45 27 17 11 39 24 50 30 11 5 27 14 35 20 22 15 212 125 230 133 8 4 29 16 45 27 17 11 37 23 45 27 8 4 44 24 79 46 35 21 74 43 85 48 12 5 35 18 51 29 17 11 39 24 50 30 11 6 34 19 50 30 17 11 37 23 45 27 8 4 47 25 85 48 39 22 77 44 85 48 8 4 29 16 45 27 17 11 37 23 45 27 8 4 58 32 110 63 52 31 102 59 110 63 8 4 26 14 40 22 14 8 30 13 35 12 6 -3 11 -173 13 -479z m795 398 c67 -40 129 -75 137 -79 8 -4 29 -16 45 -27 17 -11 37 -23 45 -27 8 -4 47 -25 85 -48 39 -22 77 -44 85 -48 8 -4 29 -16 45 -27 17 -11 39 -24 50 -30 11 -6 34 -19 50 -30 17 -11 39 -24 51 -29 11 -5 50 -27 85 -48 35 -22 71 -42 79 -46 8 -4 29 -16 45 -27 17 -11 37 -23 45 -27 8 -4 58 -32 110 -63 52 -31 102 -59 110 -63 8 -4 29 -16 45 -27 17 -11 39 -24 50 -30 11 -6 29 -16 40 -23 11 -7 63 -37 115 -67 52 -30 104 -60 115 -67 11 -7 29 -17 40 -23 11 -6 34 -19 50 -30 17 -11 37 -23 45 -27 8 -4 58 -32 110 -63 52 -31 102 -59 110 -63 8 -4 29 -16 45 -27 17 -11 37 -23 45 -27 8 -4 47 -26 85 -48 39 -23 77 -44 85 -48 8 -4 29 -16 45 -27 17 -11 39 -24 50 -30 11 -6 34 -19 50 -30 17 -11 37 -23 45 -27 8 -4 47 -25 85 -48 39 -22 78 -44 88 -48 37 -14 12 -46 -68 -87 -11 -6 -33 -19 -50 -30 -16 -11 -37 -23 -45 -27 -8 -4 -58 -32 -110 -63 -52 -31 -102 -59 -110 -63 -8 -4 -28 -16 -45 -27 -16 -11 -39 -24 -50 -30 -11 -5 -27 -14 -35 -20 -41 -27 -223 -130 -230 -130 -4 0 -13 -7 -20 -15 -18 -22 -47 -18 -99 13 -25 16 -53 31 -61 35 -8 4 -28 16 -45 27 -16 11 -37 23 -45 27 -8 4 -58 32 -110 63 -52 31 -102 59 -110 63 -8 4 -28 16 -45 27 -16 11 -37 23 -45 27 -8 4 -69 39 -135 78 -66 39 -127 74 -135 78 -8 4 -28 16 -45 27 -16 11 -37 23 -45 27 -18 8 -208 118 -230 133 -8 6 -24 15 -35 20 -11 6 -33 19 -50 30 -16 11 -37 23 -45 27 -8 4 -46 25 -85 48 -38 22 -77 44 -85 48 -8 4 -28 16 -45 27 -16 11 -37 23 -45 27 -8 4 -75 42 -147 85 l-133 79 0 473 c0 260 3 476 7 479 11 12 37 -1 166 -77z m-401 -1469 c40 -24 80 -46 88 -50 8 -4 29 -16 45 -27 17 -11 37 -23 45 -27 8 -4 47 -25 85 -48 39 -22 77 -44 85 -48 8 -4 29 -16 45 -27 17 -11 39 -24 50 -30 11 -6 29 -16 40 -23 11 -7 52 -30 90 -52 39 -22 79 -45 90 -52 11 -7 29 -17 40 -23 11 -6 34 -19 50 -30 17 -11 37 -23 45 -27 8 -4 58 -32 110 -63 52 -31 102 -59 110 -63 8 -4 29 -16 45 -27 17 -11 37 -23 45 -27 8 -4 59 -33 113 -65 54 -32 102 -58 106 -58 4 0 18 -11 31 -25 l23 -24 -24 -11 c-13 -6 -37 -19 -54 -30 -16 -11 -37 -23 -45 -27 -8 -4 -69 -39 -135 -78 -66 -39 -127 -74 -135 -78 -8 -4 -28 -16 -45 -27 -16 -11 -37 -23 -45 -27 -8 -4 -58 -32 -110 -63 -52 -31 -102 -59 -110 -63 -8 -4 -28 -16 -45 -27 -16 -11 -39 -24 -50 -30 -11 -6 -29 -16 -40 -23 -11 -7 -63 -37 -115 -67 -52 -30 -104 -60 -115 -67 -11 -7 -29 -17 -40 -23 -11 -6 -33 -19 -50 -30 -16 -11 -37 -23 -45 -27 -8 -4 -46 -26 -85 -48 -110 -65 -165 -95 -175 -95 -5 0 -61 32 -125 70 -64 39 -118 70 -120 70 -2 0 -23 13 -47 29 -24 15 -62 39 -85 52 -134 76 -1034 623 -1043 634 -12 15 -6 35 10 35 5 0 42 19 82 43 40 24 80 46 88 50 8 4 29 16 45 27 17 11 39 24 50 30 11 5 27 14 35 20 22 15 212 125 230 133 8 4 29 16 45 27 17 11 37 23 45 27 8 4 44 24 79 46 35 21 74 43 85 48 12 5 35 18 51 29 17 11 39 24 50 30 11 6 34 19 50 30 17 11 37 23 45 27 8 4 48 26 88 50 41 24 75 43 77 43 2 0 23 12 47 28 70 44 82 52 103 62 11 6 38 21 60 35 22 13 45 24 52 25 7 0 45 -19 85 -43z m-2504 -940 l22 -20 0 -1057 c0 -994 -1 -1058 -17 -1072 -10 -9 -36 -26 -58 -38 -22 -12 -53 -30 -70 -41 -16 -10 -37 -22 -45 -26 -8 -4 -58 -32 -110 -63 -52 -31 -102 -59 -110 -63 -8 -4 -22 -11 -30 -17 -22 -14 -162 -95 -180 -103 -8 -4 -28 -16 -45 -27 -16 -11 -37 -23 -45 -27 -8 -4 -36 -19 -61 -35 -25 -15 -51 -28 -58 -28 -8 0 -11 396 -11 1548 0 852 3 1551 6 1554 6 7 777 -455 812 -485z m5662 -1081 c0 -842 -4 -1517 -9 -1520 -4 -3 -60 25 -122 62 -63 38 -121 71 -129 75 -8 4 -28 16 -45 27 -16 11 -37 23 -45 27 -8 4 -46 25 -85 48 -38 22 -77 44 -85 48 -8 4 -28 16 -45 27 -16 11 -37 23 -45 27 -8 4 -48 26 -88 50 -40 24 -76 43 -80 43 -4 1 -19 11 -35 23 l-27 23 2 1038 3 1038 50 29 c28 16 59 33 70 39 11 6 34 19 50 30 17 11 37 23 45 27 18 8 208 118 230 133 8 6 24 15 35 20 11 6 34 19 50 30 17 10 44 26 60 35 17 8 73 42 125 74 52 32 101 59 108 60 9 1 12 -308 12 -1513z m-4975 673 c4 -5 17 -15 28 -20 12 -5 36 -18 52 -29 17 -11 39 -24 50 -30 11 -6 34 -19 50 -30 17 -11 39 -24 50 -30 11 -6 34 -19 50 -30 17 -11 39 -24 50 -30 11 -6 34 -19 50 -30 17 -11 39 -24 50 -30 11 -6 34 -19 50 -30 17 -11 39 -24 50 -30 11 -6 34 -19 50 -30 17 -11 39 -24 50 -30 11 -6 34 -19 50 -30 17 -11 39 -24 50 -30 11 -6 34 -19 50 -30 17 -11 39 -24 50 -30 11 -6 34 -19 50 -30 17 -11 37 -23 45 -27 8 -4 31 -18 50 -31 19 -13 44 -28 55 -33 11 -5 32 -17 47 -27 15 -9 94 -57 175 -106 81 -49 153 -97 160 -105 17 -22 19 -1701 2 -1701 -9 0 -95 45 -164 87 -11 7 -29 17 -40 23 -11 6 -33 19 -50 30 -16 11 -37 23 -45 27 -17 8 -158 89 -180 103 -8 6 -24 15 -35 20 -11 6 -33 19 -50 30 -16 11 -37 23 -45 27 -8 4 -58 32 -110 63 -52 31 -102 59 -110 63 -8 4 -28 16 -45 27 -16 11 -37 23 -45 27 -8 4 -58 32 -110 63 -52 31 -102 59 -110 63 -8 4 -28 16 -45 27 -16 11 -39 24 -50 30 -11 5 -27 14 -35 20 -8 5 -51 31 -95 56 -44 26 -83 52 -87 58 -10 14 -10 1710 -1 1719 10 10 31 8 38 -4z m3513 -854 c1 -457 0 -839 -2 -850 -3 -13 -36 -38 -83 -65 -43 -25 -87 -50 -98 -57 -11 -7 -29 -17 -40 -23 -11 -6 -33 -19 -50 -30 -16 -11 -37 -23 -45 -27 -8 -4 -58 -32 -110 -63 -52 -31 -102 -59 -110 -63 -8 -4 -28 -16 -45 -27 -16 -11 -37 -23 -45 -27 -8 -4 -44 -24 -79 -46 -35 -21 -74 -43 -85 -48 -12 -5 -34 -18 -51 -29 -16 -11 -39 -24 -50 -30 -11 -6 -33 -19 -50 -30 -16 -11 -37 -23 -45 -27 -8 -4 -46 -25 -85 -48 -38 -22 -77 -44 -85 -48 -8 -4 -28 -16 -45 -27 -16 -11 -39 -24 -50 -30 -11 -6 -29 -16 -40 -23 -69 -42 -155 -87 -164 -87 -8 0 -11 243 -11 843 l0 844 23 20 c12 11 29 23 37 27 8 3 29 15 45 26 17 11 37 23 45 27 8 4 58 32 110 63 52 31 102 59 110 63 8 4 29 16 45 27 17 11 39 24 50 30 11 6 29 16 40 23 11 7 63 37 115 67 52 30 104 60 115 67 11 7 29 17 40 23 11 6 34 19 50 30 17 11 37 23 45 27 18 8 208 118 230 133 8 6 24 15 35 20 11 6 34 19 50 30 17 11 39 24 50 29 11 6 61 35 110 65 50 30 97 54 105 53 13 -2 15 -103 18 -832z m-3813 -1440 c22 -14 49 -29 60 -35 11 -6 34 -19 50 -30 17 -11 37 -23 45 -27 8 -4 58 -32 110 -63 52 -31 102 -59 110 -63 8 -4 29 -16 45 -27 17 -11 37 -23 45 -27 8 -4 58 -32 110 -63 52 -31 102 -59 110 -63 8 -4 29 -16 45 -27 17 -11 37 -23 45 -27 8 -4 58 -32 110 -63 52 -31 102 -59 110 -63 8 -4 29 -16 45 -27 17 -11 37 -23 45 -27 8 -4 58 -32 110 -63 52 -31 102 -59 110 -63 8 -4 29 -16 45 -27 17 -11 39 -24 50 -30 11 -5 27 -14 35 -20 29 -19 222 -130 226 -130 3 0 18 -10 34 -22 l30 -22 0 -472 c0 -276 -4 -475 -9 -478 -9 -6 -43 5 -71 24 -22 15 -212 125 -230 133 -8 4 -28 16 -45 27 -16 11 -37 23 -45 27 -8 4 -46 26 -85 48 -38 23 -77 44 -85 48 -8 4 -28 16 -45 27 -16 11 -39 24 -50 30 -11 6 -33 19 -50 30 -16 11 -39 24 -51 29 -11 5 -50 27 -85 48 -35 22 -71 42 -79 46 -8 4 -28 16 -45 27 -16 11 -37 23 -45 27 -8 4 -58 32 -110 63 -52 31 -102 59 -110 63 -8 4 -28 16 -45 27 -16 11 -39 24 -50 30 -11 5 -27 14 -35 20 -22 15 -212 125 -230 133 -8 4 -28 16 -45 27 -16 11 -37 23 -45 27 -8 4 -69 39 -135 78 -66 39 -127 74 -135 78 -8 4 -28 16 -45 27 -16 11 -37 23 -45 27 -8 4 -46 25 -85 48 -38 22 -77 44 -85 48 -8 4 -28 16 -45 27 -16 11 -39 24 -50 30 -11 6 -33 19 -50 30 -16 11 -37 23 -45 27 -8 4 -46 25 -85 48 -38 22 -78 44 -89 48 -18 7 -18 8 0 28 11 12 28 25 39 30 11 5 27 13 35 19 22 15 212 125 230 133 8 4 29 16 45 27 17 11 37 23 45 27 8 4 47 25 85 48 39 22 77 44 85 48 8 4 29 16 45 27 17 11 39 24 50 29 11 6 49 28 85 50 36 22 67 40 70 40 3 0 23 -11 45 -24z m4184 -3 c25 -16 53 -31 61 -35 8 -4 29 -16 45 -27 17 -11 37 -23 45 -27 8 -4 47 -25 85 -48 39 -22 77 -44 85 -48 8 -4 29 -16 45 -27 17 -11 37 -23 45 -27 8 -4 47 -26 85 -48 39 -23 77 -44 85 -48 8 -4 38 -21 65 -37 28 -17 65 -38 83 -47 35 -18 43 -49 15 -60 -10 -4 -49 -26 -88 -48 -38 -23 -77 -44 -85 -48 -8 -4 -28 -16 -45 -27 -16 -11 -39 -24 -50 -30 -11 -6 -33 -19 -50 -30 -16 -11 -37 -23 -45 -27 -8 -4 -46 -26 -85 -48 -38 -23 -77 -44 -85 -48 -8 -4 -28 -16 -45 -27 -16 -11 -37 -23 -45 -27 -8 -4 -69 -39 -135 -78 -66 -39 -127 -74 -135 -78 -8 -4 -28 -16 -45 -27 -16 -11 -37 -23 -45 -27 -18 -8 -208 -118 -230 -133 -8 -6 -24 -15 -35 -20 -11 -6 -33 -19 -50 -30 -16 -11 -37 -23 -45 -27 -8 -4 -58 -32 -110 -63 -52 -31 -102 -59 -110 -63 -8 -4 -28 -16 -45 -27 -16 -11 -37 -23 -45 -27 -8 -4 -44 -24 -79 -46 -35 -21 -74 -43 -85 -48 -12 -5 -34 -18 -51 -29 -16 -11 -39 -24 -50 -30 -11 -6 -33 -19 -50 -30 -16 -11 -37 -23 -45 -27 -8 -4 -46 -25 -85 -48 -38 -22 -77 -44 -85 -48 -8 -4 -28 -16 -45 -27 -16 -11 -37 -23 -45 -27 -8 -4 -71 -40 -139 -80 -69 -41 -134 -75 -145 -76 -21 -2 -21 -1 -24 475 l-2 477 132 79 c73 43 140 81 148 85 8 4 29 16 45 27 17 11 37 23 45 27 8 4 47 26 85 48 39 23 77 44 85 48 8 4 29 16 45 27 17 11 39 24 50 30 11 5 27 14 35 20 22 15 212 125 230 133 8 4 29 16 45 27 17 11 37 23 45 27 8 4 69 39 135 78 66 39 127 74 135 78 8 4 29 16 45 27 17 11 37 23 45 27 8 4 58 32 110 63 52 31 102 59 110 63 8 4 29 16 45 27 17 11 39 24 50 29 11 6 38 21 60 35 51 32 58 32 114 -2z"/> </g> </svg> 