<?xml version="1.0" encoding="UTF-8" ?>
<!DOCTYPE svg PUBLIC "-//W3C//DTD SVG 1.1//EN" "http://www.w3.org/Graphics/SVG/1.1/DTD/svg11.dtd">
<svg width="48pt" height="48pt" viewBox="0 0 48 48" version="1.1" xmlns="http://www.w3.org/2000/svg">
<g id="#000000ff">
<path fill="#000000" opacity="1.00" d=" M 23.62 15.83 C 26.55 12.25 28.31 7.25 32.18 4.73 C 36.21 8.06 40.17 11.76 43.27 15.95 C 40.63 19.70 35.71 21.37 32.18 24.32 C 29.32 21.49 26.44 18.69 23.62 15.83 Z" />
<path fill="#000000" opacity="1.00" d=" M 9.51 20.12 C 11.73 18.67 14.23 17.29 16.99 17.68 C 21.93 18.11 24.97 22.57 28.15 25.84 C 31.43 29.36 30.77 34.91 27.85 38.43 C 25.10 35.84 22.46 33.14 19.77 30.50 C 15.79 34.22 12.25 38.42 8.02 41.87 C 7.50 41.42 6.44 40.52 5.92 40.07 C 9.58 35.91 13.66 32.17 17.50 28.19 C 14.81 25.53 12.14 22.85 9.51 20.12 Z" />
</g>
</svg>
