<?xml version="1.0" encoding="UTF-8" standalone="no"?>
<!-- Generator: Adobe Illustrator 18.0.0, SVG Export Plug-In . SVG Version: 6.00 Build 0)  -->

<svg
   xmlns:dc="http://purl.org/dc/elements/1.1/"
   xmlns:cc="http://creativecommons.org/ns#"
   xmlns:rdf="http://www.w3.org/1999/02/22-rdf-syntax-ns#"
   xmlns:svg="http://www.w3.org/2000/svg"
   xmlns="http://www.w3.org/2000/svg"
   xmlns:sodipodi="http://sodipodi.sourceforge.net/DTD/sodipodi-0.dtd"
   xmlns:inkscape="http://www.inkscape.org/namespaces/inkscape"
   version="1.1"
   id="Layer_1"
   x="0px"
   y="0px"
   viewBox="0 0 64 64"
   enable-background="new 0 0 64 64"
   xml:space="preserve"
   sodipodi:docname="flameshot.svg"
   inkscape:version="0.92.1 r"
   inkscape:export-filename="/home/dharkael/qt/libreshot/src/libreshot.svg.png"
   inkscape:export-xdpi="96"
   inkscape:export-ydpi="96"><metadata
     id="metadata101"><rdf:RDF><cc:Work
         rdf:about=""><dc:format>image/svg+xml</dc:format><dc:type
           rdf:resource="http://purl.org/dc/dcmitype/StillImage" /><dc:title /></cc:Work></rdf:RDF></metadata><defs
     id="defs99" /><sodipodi:namedview
     pagecolor="#ffffff"
     bordercolor="#666666"
     borderopacity="1"
     objecttolerance="10"
     gridtolerance="10"
     guidetolerance="10"
     inkscape:pageopacity="0"
     inkscape:pageshadow="2"
     inkscape:window-width="1366"
     inkscape:window-height="709"
     id="namedview97"
     showgrid="false"
     inkscape:zoom="5.2149126"
     inkscape:cx="12.274187"
     inkscape:cy="24.949905"
     inkscape:window-x="0"
     inkscape:window-y="0"
     inkscape:window-maximized="1"
     inkscape:current-layer="Layer_1" /><g
     id="g6"
     style="fill:#8800aa;fill-opacity:1"><g
       id="g4"
       style="fill:#8800aa;fill-opacity:1"><path
         inkscape:connector-curvature="0"
         style="fill:#8800aa;fill-opacity:1"
         id="path2"
         d="M 32,0 C 49.7,0 64,14.3 64,32 64,49.7 49.7,64 32,64 14.3,64 0,49.7 0,32 0,14.3 14.3,0 32,0 Z" /></g></g><g
     id="g12"><g
       id="g10" /></g><g
     id="g18"><g
       id="g16" /></g><g
     id="g24"><g
       id="g22" /></g><g
     id="g30"><g
       id="g28" /></g><g
     id="g36"><g
       id="g34" /></g><g
     id="g42"><g
       id="g40" /></g><g
     id="g60"><g
       id="g58" /></g><g
     id="g66"><g
       id="g64" /></g><g
     id="g72"><g
       id="g70" /></g><path
     style="fill:#ff0066;fill-opacity:1;stroke-width:1.13713586"
     d="M 34.301727,27.763661 C 52.85578,24.182344 53.568489,16.090526 53.568489,16.090526 c 0,0 -1.461162,25.077774 -15.020696,26.404551 -17.183092,1.681337 -19.750268,9.787479 -19.750268,9.787479 0,0 4.595184,-22.413228 15.504202,-24.518895 z"
     id="rect909"
     inkscape:connector-curvature="0"
     sodipodi:nodetypes="scscs" /><path
     sodipodi:nodetypes="scscs"
     inkscape:connector-curvature="0"
     id="path912"
     d="M 23.106366,26.657235 C 38.827819,19.99904 37.387899,9.1374656 37.387899,9.1374656 c 0,0 8.679892,22.1582594 -4.332402,27.3240804 -14.536075,5.770754 -13.88928,15.62802 -13.88928,15.62802 0,0 -5.293267,-21.521885 3.940149,-25.432331 z"
     style="fill:#ff6600;fill-opacity:1;stroke-width:1.01643908" /><path
     style="fill:#ffcc00;fill-opacity:1;stroke-width:0.81940109"
     d="m 13.844924,32.547713 c 8.832834,-11.647275 6.84612,-19.816349 6.84612,-19.816349 0,0 11.316725,14.190349 3.61602,22.979377 -8.602482,9.818252 -4.856061,16.648887 -4.856061,16.648887 0,0 -10.6722595,-13.131467 -5.606079,-19.811915 z"
     id="path914"
     inkscape:connector-curvature="0"
     sodipodi:nodetypes="scscs" /></svg>